<svg xmlns="http://www.w3.org/2000/svg" xmlns:xlink="http://www.w3.org/1999/xlink" width="32" height="32" viewBox="0 0 32 32">
  <defs>
    <clipPath id="clip-Artboard_1">
      <rect width="32" height="32"/>
    </clipPath>
  </defs>
  <g id="Artboard_1" data-name="Artboard – 1" clip-path="url(#clip-Artboard_1)">
    <rect width="32" height="32" fill="#fff"/>
    <g id="Group_22541" data-name="Group 22541" transform="translate(0.002 2.001)">
      <g id="Group_19431" data-name="Group 19431" transform="translate(-0.002 -0.001)">
        <g id="Group_19430" data-name="Group 19430" transform="translate(25.674 12.081)">
          <path id="Path_20251" data-name="Path 20251" d="M1352.151,452.74a1.049,1.049,0,0,1-1.258,1.03,6.327,6.327,0,0,1,0-12.4,1.049,1.049,0,0,1,1.257,1.03Z" transform="translate(-1345.824 -441.348)" fill="#1a3556"/>
        </g>
        <path id="Path_20252" data-name="Path 20252" d="M1162.768,414.255h-.247a3.781,3.781,0,0,1-6.7,0H1149.5a2.476,2.476,0,1,1-4.952.014,4.648,4.648,0,0,0-4.3,4.62v9.942a4.647,4.647,0,0,0,4.634,4.634h17.883a4.648,4.648,0,0,0,4.634-4.634v-9.945a4.648,4.648,0,0,0-4.636-4.63Z" transform="translate(-1140.253 -405.559)" fill="#ff4e00"/>
        <path id="Path_20253" data-name="Path 20253" d="M1243.1,347.784a3.784,3.784,0,1,1-3.784,3.784,3.784,3.784,0,0,1,3.784-3.784m0-3.158a6.941,6.941,0,1,0,6.941,6.941,6.941,6.941,0,0,0-6.941-6.941Z" transform="translate(-1224.182 -344.626)" fill="#1a3556"/>
        <path id="Path_20254" data-name="Path 20254" d="M1162.666,379.952a2.476,2.476,0,1,1-2.476,2.476,2.476,2.476,0,0,1,2.476-2.476m0-2.066a4.542,4.542,0,1,0,4.542,4.542,4.542,4.542,0,0,0-4.542-4.542Z" transform="translate(-1155.891 -373.732)" fill="#1a3556"/>
      </g>
      <path id="Path_20255" data-name="Path 20255" d="M1212.717,481.526a6.327,6.327,0,0,1-12.4,0,1.049,1.049,0,0,1,1.03-1.258h10.346a1.049,1.049,0,0,1,1.025,1.258Z" transform="translate(-1192.796 -463.333)" fill="#fff"/>
    </g>
  </g>
</svg>
