<svg id="Group_22349" data-name="Group 22349" xmlns="http://www.w3.org/2000/svg" viewBox="0 0 22 22">
  <path id="Path_22385" data-name="Path 22385" d="M0,0H22V22H0Z" fill="none"/>
  <path id="Path_22386" data-name="Path 22386" d="M4.833,6.75H5.75A1.833,1.833,0,0,0,7.583,4.917.917.917,0,0,1,8.5,4H14a.917.917,0,0,1,.917.917A1.833,1.833,0,0,0,16.75,6.75h.917A1.833,1.833,0,0,1,19.5,8.583v8.25a1.833,1.833,0,0,1-1.833,1.833H4.833A1.833,1.833,0,0,1,3,16.833V8.583A1.833,1.833,0,0,1,4.833,6.75" transform="translate(-0.25 -0.333)" fill="none" stroke="#31ad76" strokeLinecap="round" strokeLinejoin="round" strokeWidth="1.5"/>
  <circle id="Ellipse_1143" data-name="Ellipse 1143" cx="2.75" cy="2.75" r="2.75" transform="translate(8.25 9.167)" fill="none" stroke="#31ad76" strokeLinecap="round" strokeLinejoin="round" strokeWidth="1.5"/>
</svg>
