<svg xmlns="http://www.w3.org/2000/svg" viewBox="0 0 107.014 67.438">
  <g id="Group_19436" data-name="Group 19436" transform="translate(-978.973 -344.627)">
    <g id="Group_19433" data-name="Group 19433" transform="translate(1008.312 344.627)">
      <g id="Group_19432" data-name="Group 19432" transform="translate(0 0)">
        <g id="Group_19431" data-name="Group 19431">
          <g id="Group_19430" data-name="Group 19430" transform="translate(37.395 17.594)">
            <path id="Path_20251" data-name="Path 20251" d="M1355.037,457.943a1.529,1.529,0,0,1-1.832,1.5,9.216,9.216,0,0,1,0-18.064,1.528,1.528,0,0,1,1.832,1.5Z" transform="translate(-1345.823 -441.345)" fill="#1a3556"/>
          </g>
          <path id="Path_20252" data-name="Path 20252" d="M1173.054,414.255h-.36a5.508,5.508,0,0,1-9.764,0h-9.2a3.606,3.606,0,0,1-7.213.02,6.771,6.771,0,0,0-6.26,6.73v14.482a6.769,6.769,0,0,0,6.75,6.75h26.05a6.77,6.77,0,0,0,6.75-6.75V421A6.77,6.77,0,0,0,1173.054,414.255Z" transform="translate(-1140.255 -401.589)" fill="#ff4e00"/>
          <path id="Path_20253" data-name="Path 20253" d="M1246.271,349.226a5.512,5.512,0,1,1-5.512,5.512,5.512,5.512,0,0,1,5.512-5.512m0-4.6a10.111,10.111,0,1,0,10.111,10.111,10.122,10.122,0,0,0-10.111-10.111Z" transform="translate(-1218.714 -344.627)" fill="#1a3556"/>
          <path id="Path_20254" data-name="Path 20254" d="M1164.74,380.895a3.607,3.607,0,1,1-3.607,3.607,3.607,3.607,0,0,1,3.607-3.607m0-3.009a6.616,6.616,0,1,0,6.616,6.616,6.623,6.623,0,0,0-6.616-6.616Z" transform="translate(-1154.873 -371.836)" fill="#1a3556"/>
        </g>
        <path id="Path_20255" data-name="Path 20255" d="M1218.387,482.1a9.216,9.216,0,0,1-18.064,0,1.528,1.528,0,0,1,1.5-1.832h15.071A1.528,1.528,0,0,1,1218.387,482.1Z" transform="translate(-1189.371 -455.598)" fill="#fff"/>
      </g>
    </g>
    <g id="Group_19435" data-name="Group 19435" transform="translate(978.973 393.073)">
      <path id="Path_20256" data-name="Path 20256" d="M992.585,628.021h-1.752a.937.937,0,0,1-.937-.937v-6.745l-3.464,5.726h-.367l-3.444-5.705v6.724a.937.937,0,0,1-.937.937H979.91a.937.937,0,0,1-.937-.937V614.694a.937.937,0,0,1,.937-.937h2.177a.938.938,0,0,1,.805.458l3.354,5.635,3.375-5.637a.937.937,0,0,1,.8-.456h2.158a.938.938,0,0,1,.937.937v12.389A.937.937,0,0,1,992.585,628.021Z" transform="translate(-978.973 -613.246)" fill="#1a3556"/>
      <path id="Path_20257" data-name="Path 20257" d="M1079.419,636.161a.937.937,0,0,1,.885,1.245l-3.052,8.78c-.961,2.756-2.6,4.076-5.159,4.233a.938.938,0,0,1-.995-.937v-1.352a.933.933,0,0,1,.81-.928,1.934,1.934,0,0,0,1.716-1.179l-3.54-8.567a.937.937,0,0,1,.866-1.3h1.722a.937.937,0,0,1,.885.629l1.839,5.28,1.4-5.215a.937.937,0,0,1,.905-.694Z" transform="translate(-1053.452 -631.574)" fill="#1a3556"/>
      <path id="Path_20258" data-name="Path 20258" d="M1141.6,618.057v2.323h4.075a.937.937,0,0,1,.938.937v1.65a.937.937,0,0,1-.937.937H1141.6v3.953a.937.937,0,0,1-.937.937h-1.773a.937.937,0,0,1-.937-.937V615.469a.937.937,0,0,1,.937-.937h6.887a.937.937,0,0,1,.937.937v1.65a.937.937,0,0,1-.937.937Z" transform="translate(-1109.03 -613.88)" fill="#1a3556"/>
      <path id="Path_20259" data-name="Path 20259" d="M1196.025,613.329a1.955,1.955,0,1,1,1.371,1.434A1.984,1.984,0,0,1,1196.025,613.329Zm1.149,2.346h1.508a.937.937,0,0,1,.938.937v8.314a.937.937,0,0,1-.937.937h-1.508a.937.937,0,0,1-.937-.937v-8.314A.937.937,0,0,1,1197.174,615.675Z" transform="translate(-1156.498 -610.947)" fill="#1a3556"/>
      <path id="Path_20260" data-name="Path 20260" d="M1229.954,611.171h1.508a.937.937,0,0,1,.937.937v13a.937.937,0,0,1-.937.937h-1.508a.937.937,0,0,1-.937-.937v-13A.937.937,0,0,1,1229.954,611.171Z" transform="translate(-1183.532 -611.13)" fill="#1a3556"/>
      <path id="Path_20261" data-name="Path 20261" d="M1276.132,639.606v5.3a.937.937,0,0,1-.937.938h-1.528a.938.938,0,0,1-.937-.937v-4.911c0-.876-.407-1.426-1.263-1.426-.958,0-1.406.693-1.406,1.712V644.9a.937.937,0,0,1-.937.938h-1.508a.937.937,0,0,1-.937-.937v-4.911c0-.876-.428-1.426-1.284-1.426-.937,0-1.406.693-1.406,1.712V644.9a.937.937,0,0,1-.937.938h-1.508a.937.937,0,0,1-.937-.937V636.59a.937.937,0,0,1,.938-.937h1.508a.937.937,0,0,1,.938.937v.02a3.26,3.26,0,0,1,2.751-1.243,2.917,2.917,0,0,1,2.608,1.3,3.571,3.571,0,0,1,2.954-1.3C1274.645,635.367,1276.132,636.957,1276.132,639.606Z" transform="translate(-1209.373 -630.925)" fill="#1a3556"/>
      <path id="Path_20262" data-name="Path 20262" d="M1447.367,640.746c0,3.057-2.058,5.38-4.789,5.38a3.566,3.566,0,0,1-2.894-1.223v4.075a.937.937,0,0,1-.937.937h-1.508a.937.937,0,0,1-.937-.937V636.59a.937.937,0,0,1,.937-.937h1.508a.937.937,0,0,1,.938.937h0a3.566,3.566,0,0,1,2.894-1.223C1445.309,635.367,1447.367,637.69,1447.367,640.746Zm-3.4,0a2.141,2.141,0,1,0-2.14,2.221A2.076,2.076,0,0,0,1443.964,640.746Z" transform="translate(-1353.11 -630.925)" fill="#1a3556"/>
      <path id="Path_20263" data-name="Path 20263" d="M1517.5,640.746c0,3.057-2.058,5.38-4.788,5.38a3.566,3.566,0,0,1-2.894-1.223v4.075a.937.937,0,0,1-.937.937h-1.508a.937.937,0,0,1-.937-.937V636.59a.937.937,0,0,1,.938-.937h1.508a.937.937,0,0,1,.937.937h0a3.566,3.566,0,0,1,2.894-1.223C1515.438,635.367,1517.5,637.69,1517.5,640.746Zm-3.4,0a2.141,2.141,0,1,0-2.139,2.221A2.076,2.076,0,0,0,1514.094,640.746Z" transform="translate(-1410.482 -630.925)" fill="#1a3556"/>
      <g id="Group_19434" data-name="Group 19434" transform="translate(68.403 0.361)">
        <path id="Path_20264" data-name="Path 20264" d="M1363.827,613.535l4.557,13.139c.177.521-.052.855-.6.855h-2.044a.816.816,0,0,1-.855-.626l-.751-2.419h-4.817l-.751,2.419a.815.815,0,0,1-.855.626h-2.044c-.553,0-.782-.334-.6-.855l4.557-13.139a.824.824,0,0,1,.855-.6h2.5A.824.824,0,0,1,1363.827,613.535Zm-2.106,3.024-1.616,5.224h3.233Z" transform="translate(-1354.998 -612.93)" fill="#1a3556"/>
      </g>
    </g>
  </g>
</svg>
