<svg id="Group_22090" data-name="Group 22090" xmlns="http://www.w3.org/2000/svg" viewBox="0 0 28 28">
  <rect id="Rectangle_5179" data-name="Rectangle 5179" fill="none"/>
  <path id="Path_22305" data-name="Path 22305" d="M42.667,39.876a7.854,7.854,0,1,1,15.706.1v.776c0,3.917.82,6.191,1.541,7.433a.875.875,0,0,1-.753,1.317H41.878a.875.875,0,0,1-.753-1.317c.722-1.242,1.542-3.516,1.542-7.433Z" transform="translate(-36.52 -28.501)" fill="#1a3556" opacity="0.2"/>
  <path id="Path_22306" data-name="Path 22306" d="M42.667,39.876a7.854,7.854,0,1,1,15.706.1v.776c0,3.917.82,6.191,1.541,7.433a.875.875,0,0,1-.753,1.317H41.878a.875.875,0,0,1-.753-1.317c.722-1.242,1.542-3.516,1.542-7.433Z" transform="translate(-36.52 -28.501)" fill="none"/>
  <path id="Path_22307" data-name="Path 22307" d="M96,192v.875a3.5,3.5,0,0,0,7,0V192" transform="translate(-85.5 -171)" fill="#1a3555"/>
</svg>
