<svg xmlns="http://www.w3.org/2000/svg" width="20.5" height="20.5" viewBox="0 0 20.5 20.5">
  <g id="noun_Discount_4185035" transform="translate(-1.75 -1.75)">
    <g id="Group_19512" data-name="Group 19512" transform="translate(2 2)">
      <path id="Path_21826" data-name="Path 21826" d="M19.813,8.764a4.357,4.357,0,0,1-.17-1.526,3.163,3.163,0,0,0-.572-2.309,3.162,3.162,0,0,0-2.31-.572,4.356,4.356,0,0,1-1.526-.169A4.107,4.107,0,0,1,14.1,3.262,3.194,3.194,0,0,0,12,2,3.192,3.192,0,0,0,9.907,3.26a4.11,4.11,0,0,1-1.144.927,4.347,4.347,0,0,1-1.524.169,3.16,3.16,0,0,0-2.309.572A3.161,3.161,0,0,0,4.357,7.24a4.361,4.361,0,0,1-.169,1.524A4.113,4.113,0,0,1,3.262,9.9,3.2,3.2,0,0,0,2,12a3.2,3.2,0,0,0,1.262,2.095,4.109,4.109,0,0,1,.926,1.141,4.365,4.365,0,0,1,.169,1.524,3.161,3.161,0,0,0,.573,2.312,3.159,3.159,0,0,0,2.309.572,4.352,4.352,0,0,1,1.525.169,4.11,4.11,0,0,1,1.143.927A3.191,3.191,0,0,0,12,22a3.2,3.2,0,0,0,2.1-1.262,4.107,4.107,0,0,1,1.141-.926,4.356,4.356,0,0,1,1.526-.169,3.161,3.161,0,0,0,2.31-.572,3.162,3.162,0,0,0,.572-2.309,4.361,4.361,0,0,1,.17-1.526,4.106,4.106,0,0,1,.926-1.141A3.194,3.194,0,0,0,22,12a3.194,3.194,0,0,0-1.261-2.094A4.1,4.1,0,0,1,19.813,8.764Zm.457,4.857A4.593,4.593,0,0,0,19.2,14.981a4.8,4.8,0,0,0-.22,1.78A2.718,2.718,0,0,1,18.6,18.6a2.718,2.718,0,0,1-1.84.377,4.789,4.789,0,0,0-1.779.22,4.585,4.585,0,0,0-1.358,1.072c-.52.523-1.058,1.065-1.623,1.065s-1.1-.541-1.62-1.064A4.6,4.6,0,0,0,9.019,19.2a4.784,4.784,0,0,0-1.779-.22A2.713,2.713,0,0,1,5.4,18.6a2.715,2.715,0,0,1-.378-1.842A4.8,4.8,0,0,0,4.8,14.98a4.6,4.6,0,0,0-1.073-1.359C3.208,13.1,2.667,12.564,2.667,12s.541-1.1,1.065-1.622A4.6,4.6,0,0,0,4.8,9.019a4.8,4.8,0,0,0,.219-1.777A2.716,2.716,0,0,1,5.4,5.4a2.715,2.715,0,0,1,1.84-.377A4.779,4.779,0,0,0,9.019,4.8,4.6,4.6,0,0,0,10.38,3.73C10.9,3.207,11.437,2.667,12,2.667s1.1.541,1.623,1.065A4.6,4.6,0,0,0,14.981,4.8a4.789,4.789,0,0,0,1.779.22A2.719,2.719,0,0,1,18.6,5.4a2.72,2.72,0,0,1,.376,1.84,4.794,4.794,0,0,0,.22,1.779,4.582,4.582,0,0,0,1.072,1.36c.523.519,1.064,1.057,1.064,1.621S20.792,13.1,20.27,13.621Z" transform="translate(-2 -2)" fill="#fff" stroke="#fff" strokeWidth="0.5"/>
      <path id="Path_21827" data-name="Path 21827" d="M28.782,22.739a.333.333,0,0,0-.471,0l-5.572,5.572a.333.333,0,1,0,.471.471l5.572-5.572A.333.333,0,0,0,28.782,22.739Z" transform="translate(-15.76 -15.761)" fill="#fff" stroke="#fff" strokeWidth="0.5"/>
      <path id="Path_21828" data-name="Path 21828" d="M23.527,25.18a1.654,1.654,0,1,0-1.169-.485A1.643,1.643,0,0,0,23.527,25.18Zm-.7-2.351a.986.986,0,0,1,1.394,0,.989.989,0,0,1,0,1.4,1.009,1.009,0,0,1-1.4,0,.985.985,0,0,1,0-1.395Z" transform="translate(-15.249 -15.249)" fill="#fff" stroke="#fff" strokeWidth="0.5"/>
      <path id="Path_21829" data-name="Path 21829" d="M33.862,32.208h0a1.653,1.653,0,1,0,1.169.484A1.642,1.642,0,0,0,33.862,32.208Zm.7,2.35a1.011,1.011,0,0,1-1.4,0,.986.986,0,0,1,1.4-1.395A.989.989,0,0,1,34.56,34.558Z" transform="translate(-22.139 -22.139)" fill="#fff" stroke="#fff" strokeWidth="0.5"/>
    </g>
  </g>
</svg>
