<svg xmlns="http://www.w3.org/2000/svg" viewBox="0 0 18.044 17.298">
  <path id="Star" d="M10.677,4.312a1.391,1.391,0,0,1,2.647,0L14.5,7.931a1.392,1.392,0,0,0,1.323.962h3.805a1.391,1.391,0,0,1,.818,2.517l-3.078,2.237a1.392,1.392,0,0,0-.506,1.556l1.176,3.619A1.391,1.391,0,0,1,15.9,20.377L12.818,18.14a1.391,1.391,0,0,0-1.636,0L8.1,20.377a1.392,1.392,0,0,1-2.141-1.556L7.138,15.2a1.391,1.391,0,0,0-.505-1.556L3.554,11.41a1.391,1.391,0,0,1,.818-2.517H8.177A1.391,1.391,0,0,0,9.5,7.931Z" transform="translate(-2.978 -3.351)" fill="#fc4e00"/>
</svg>
