<svg xmlns="http://www.w3.org/2000/svg" width="115.74" height="115.563" viewBox="0 0 115.74 115.563">
  <g id="Sticker" transform="translate(-2207.863 -175.444)">
    <g id="Group_22016" data-name="Group 22016" transform="translate(2207.863 175.444)">
      <path id="Path_21584" data-name="Path 21584" d="M2319.014,254.185l-3.692,2.208a3.535,3.535,0,0,0-1.7,3.375l.414,4.281a3.536,3.536,0,0,1-2.591,3.752l-4.151,1.13a3.537,3.537,0,0,0-2.552,2.79l-.757,4.235a3.536,3.536,0,0,1-3.507,2.914l-4.3-.032a3.535,3.535,0,0,0-3.21,2l-1.871,3.873a3.536,3.536,0,0,1-4.163,1.859l-4.133-1.191a3.536,3.536,0,0,0-3.63,1.058l-2.847,3.225a3.536,3.536,0,0,1-4.51.667l-3.659-2.262a3.537,3.537,0,0,0-3.781.039l-3.611,2.337a3.536,3.536,0,0,1-4.523-.574l-2.912-3.166a3.536,3.536,0,0,0-3.651-.983l-4.108,1.276a3.537,3.537,0,0,1-4.2-1.773l-1.95-3.834a3.536,3.536,0,0,0-3.251-1.931l-4.3.121a3.535,3.535,0,0,1-3.565-2.841l-.844-4.218a3.536,3.536,0,0,0-2.609-2.737l-4.173-1.044a3.536,3.536,0,0,1-2.668-3.7l.326-4.289a3.536,3.536,0,0,0-1.774-3.339l-3.736-2.131a3.535,3.535,0,0,1-1.571-4.28l1.471-4.043a3.536,3.536,0,0,0-.807-3.694l-3.023-3.06a3.536,3.536,0,0,1-.358-4.545l2.507-3.5a3.536,3.536,0,0,0,.22-3.774l-2.086-3.763a3.536,3.536,0,0,1,.882-4.474l3.357-2.69a3.536,3.536,0,0,0,1.23-3.576l-.993-4.185a3.536,3.536,0,0,1,2.056-4.07l3.958-1.684a3.537,3.537,0,0,0,2.149-3.111l.173-4.3a3.536,3.536,0,0,1,3.078-3.364l4.265-.554a3.535,3.535,0,0,0,2.909-2.416l1.326-4.092a3.536,3.536,0,0,1,3.872-2.409l4.257.617a3.537,3.537,0,0,0,3.453-1.542l2.381-3.583a3.535,3.535,0,0,1,4.377-1.275l3.933,1.743a3.536,3.536,0,0,0,3.74-.554l3.259-2.807a3.536,3.536,0,0,1,4.559-.047l3.316,2.739a3.536,3.536,0,0,0,3.751.476l3.9-1.824a3.537,3.537,0,0,1,4.4,1.185l2.454,3.533a3.536,3.536,0,0,0,3.483,1.471l4.243-.7a3.536,3.536,0,0,1,3.92,2.329l1.41,4.064a3.536,3.536,0,0,0,2.958,2.356l4.276.466a3.535,3.535,0,0,1,3.146,3.3l.261,4.294a3.537,3.537,0,0,0,2.212,3.066l3.992,1.6a3.536,3.536,0,0,1,2.14,4.026l-.906,4.205a3.536,3.536,0,0,0,1.3,3.549l3.412,2.62a3.536,3.536,0,0,1,.974,4.454l-2.008,3.8a3.538,3.538,0,0,0,.3,3.769l2.578,3.443a3.535,3.535,0,0,1-.264,4.552l-2.959,3.122a3.535,3.535,0,0,0-.731,3.71l1.553,4.011A3.536,3.536,0,0,1,2319.014,254.185Z" transform="translate(-2207.863 -175.444)" fill="#00a887"/>
    </g>
    <g id="Group_22017" data-name="Group 22017" transform="translate(2239.66 213.116)">
      <path id="Path_21585" data-name="Path 21585" d="M2362.16,377.406l-19.53-19.519,6.173-6.176,13.164,13.157,27.989-29.753,6.36,5.983Z" transform="translate(-2342.63 -335.115)" fill="#fff"/>
    </g>
  </g>
</svg>
